HIERARCHY
ROOT hip
{
	OFFSET 0.000000 0.000000 0.000000 
	CHANNELS 6 Xposition Yposition Zposition Xrotation Zrotation Yrotation
	JOINT abdomen
	{
		OFFSET 0.000000 3.402643 0.000000 
		CHANNELS 3 Xrotation Zrotation Yrotation
		JOINT chest
		{
			OFFSET 0.000000 8.438565 -0.680529 
			CHANNELS 3 Xrotation Zrotation Yrotation
			JOINT neck
			{
				OFFSET 0.000000 10.207942 -0.272212 
				CHANNELS 3 Xrotation Zrotation Yrotation
				JOINT head
				{
					OFFSET 0.000000 3.130431 0.000000 
					CHANNELS 3 Xrotation Zrotation Yrotation
					End Site
					{
						OFFSET 0.000000 3.130435 0.000000 
					}
				}
			}
			JOINT lCollar
			{
				OFFSET 3.470700 6.669187 -0.816635 
				CHANNELS 3 Yrotation Zrotation Xrotation
				JOINT lShldr
				{
					OFFSET 3.198488 0.000000 0.000000 
					CHANNELS 3 Zrotation Yrotation Xrotation
					JOINT lForeArm
					{
						OFFSET 10.139888 0.000000 0.000000 
						CHANNELS 3 Yrotation Zrotation Xrotation
						JOINT lHand
						{
							OFFSET 8.370511 0.000000 0.000000 
							CHANNELS 3 Zrotation Yrotation Xrotation
							End Site
							{
								OFFSET 4.083176 0.000000 0.000000 
							}
						}
					}
				}
			}
			JOINT rCollar
			{
				OFFSET -3.470700 6.669187 -0.816635 
				CHANNELS 3 Yrotation Zrotation Xrotation
				JOINT rShldr
				{
					OFFSET -3.198488 0.000000 0.000000 
					CHANNELS 3 Zrotation Yrotation Xrotation
					JOINT rForeArm
					{
						OFFSET -10.139888 0.000000 0.000000 
						CHANNELS 3 Yrotation Zrotation Xrotation
						JOINT rHand
						{
							OFFSET -8.370511 0.000000 0.000000 
							CHANNELS 3 Zrotation Yrotation Xrotation
							End Site
							{
								OFFSET -4.083176 0.000000 0.000000 
							}
						}
					}
				}
			}
		}
	}
	JOINT lThigh
	{
		OFFSET 5.308129 -1.633274 1.361059 
		CHANNELS 3 Xrotation Zrotation Yrotation
		JOINT lShin
		{
			OFFSET -2.041588 -20.007561 0.000000 
			CHANNELS 3 Xrotation Zrotation Yrotation
			JOINT lFoot
			{
				OFFSET 0.000000 -19.190928 -1.224953 
				CHANNELS 3 Xrotation Yrotation Zrotation
				End Site
				{
					OFFSET 0.000000 -2.449906 4.627600 
				}
			}
		}
	}
	JOINT rThigh
	{
		OFFSET -5.308129 -1.633274 1.361059 
		CHANNELS 3 Xrotation Zrotation Yrotation
		JOINT rShin
		{
			OFFSET 2.041588 -20.007561 0.000000 
			CHANNELS 3 Xrotation Zrotation Yrotation
			JOINT rFoot
			{
				OFFSET 0.000000 -19.190928 -1.224953 
				CHANNELS 3 Xrotation Yrotation Zrotation
				End Site
				{
					OFFSET 0.000000 -2.449906 4.627600 
				}
			}
		}
	}
}
MOTION
Frames: 18
Frame Time: 0.033333
0.435284 46.099403 4.771192 12.651999 -0.379265 -5.244284 0.000000 0.000000 0.000000 5.146911 0.524031 6.426136 60.355343 1.064436 -0.322210 -7.578470 0.009760 -2.021484 -26.645828 16.104795 24.997585 -92.234573 -7.270106 -0.480382 -37.601612 8.423116 60.712589 -9.219070 2.555843 -58.835434 14.467179 -16.348717 25.000000 72.512306 11.799561 71.659081 17.538162 -26.704075 -15.184747 18.948965 -0.782019 -82.628387 -32.737198 4.791933 15.563387 62.331036 14.379635 0.526307 -15.776957 -3.011553 9.247756 -35.216549 -3.866928 1.420330 60.354153 -2.265095 4.092165 -4.861131 3.621226 11.821346 
0.545066 48.020893 4.928020 11.873087 0.223583 -5.478550 0.000000 0.000000 0.000000 4.869833 0.320266 6.386837 56.334892 0.517569 -0.332018 -9.973089 0.478361 -1.455109 -25.555216 15.265839 24.992659 -91.454170 -6.411033 -0.883835 -37.341732 7.581793 60.938202 -8.500775 1.580996 -58.705109 14.380793 -15.927615 24.999483 71.926453 12.168978 71.225105 16.121920 -25.728655 -15.256590 18.486748 1.323599 -82.706680 -26.826353 3.721282 16.172787 52.534374 13.401051 0.704010 -8.614165 -6.223018 11.219205 -30.469522 -5.174834 0.786835 52.292282 -1.630736 3.461995 2.695105 7.078957 8.667809 
0.634841 49.720222 5.063324 11.156711 0.738514 -5.703531 0.000000 0.000000 0.000000 4.792693 0.155289 6.357451 51.699657 -0.078124 -0.322279 -13.226680 1.064364 -0.742241 -24.637352 14.032606 24.988218 -90.186340 -5.522640 -1.554417 -36.790230 6.713705 60.866924 -7.570347 0.466902 -58.598946 14.612537 -15.204981 25.000000 71.260002 12.389956 70.779228 14.344427 -25.145006 -14.973086 18.290703 3.129069 -82.736282 -21.705997 2.840655 16.625568 43.834427 12.323213 0.863914 -2.483076 -8.940841 13.100835 -26.430058 -6.346221 0.199698 45.251335 -0.915158 2.976028 8.711138 9.567951 5.104270 
0.704801 51.251545 5.178299 10.507179 1.136488 -5.919125 0.000000 0.000000 0.000000 4.892515 0.087353 6.337899 46.146645 -0.722645 -0.322363 -17.244007 1.748046 0.068625 -23.903900 12.413940 24.987980 -88.394913 -4.482425 -2.509705 -36.265362 5.705848 60.696907 -6.550890 -0.710216 -58.541634 15.235222 -14.275518 25.000000 70.691452 12.545908 70.402359 11.870409 -24.789553 -14.842394 18.027334 5.043773 -82.764244 -17.439535 2.284507 16.899036 36.742481 11.171974 1.002895 2.094702 -10.788697 13.554317 -22.991087 -7.390329 -0.275696 39.392746 -0.182049 2.558702 12.315039 10.820463 2.617066 
0.741227 52.718330 5.257806 10.055130 1.233359 -6.036484 0.000000 0.000000 0.000000 5.120430 0.291156 6.377069 38.317822 -1.376934 -0.302882 -22.257919 2.470261 1.085081 -23.318571 10.951240 24.992544 -86.687553 -3.753300 -3.435840 -35.543179 4.770783 60.581886 -5.539214 -1.885823 -58.532459 16.126181 -13.645535 24.993538 70.841614 12.950881 70.417885 8.178665 -24.428053 -15.732683 17.438833 7.528531 -82.789215 -14.288683 2.310005 17.193008 32.589298 10.137025 1.022012 4.077236 -11.095895 11.463512 -20.093609 -8.182058 -0.612854 35.091068 0.449073 2.233387 12.632929 9.981447 3.279599 
0.751955 53.880791 5.302272 9.779553 1.155605 -6.065579 0.000000 0.000000 0.000000 5.361930 0.611357 6.436012 30.234501 -1.933568 -0.293461 -26.396269 3.259608 2.064430 -22.874056 10.042211 24.996174 -85.519348 -3.441893 -4.080104 -34.830391 4.017996 60.441334 -4.755873 -2.542615 -58.579617 16.932457 -13.447477 24.997046 71.380951 13.455116 70.627213 4.796634 -23.999277 -17.044485 16.635088 9.905247 -82.817856 -12.338994 2.662930 17.450651 30.939453 9.385713 0.951063 4.331013 -10.699062 9.063886 -17.975756 -8.641465 -0.832909 32.445759 0.820083 2.068409 11.650316 8.331131 5.350963 
0.731774 54.515614 5.298130 9.761847 0.874113 -5.986970 0.000000 0.000000 0.000000 5.553740 0.999346 6.524485 23.535732 -2.246070 -0.264235 -29.376562 3.736180 2.671800 -22.583309 10.069328 24.997679 -85.322624 -3.793069 -4.180408 -34.253143 3.597864 60.329620 -4.391535 -2.278028 -58.679623 17.371220 -13.934941 24.996195 72.446556 14.051424 71.134132 2.281761 -23.699272 -18.743258 15.756101 11.943360 -82.846825 -12.038970 3.260370 17.663046 32.469212 9.182156 0.829913 2.638037 -9.816494 7.126589 -17.113787 -8.718242 -0.888069 32.114887 0.805901 2.029152 9.772212 6.325085 8.316319 
0.709416 54.869064 5.280340 9.795373 0.660581 -5.869424 0.000000 0.000000 0.000000 5.671189 1.329045 6.593640 17.794806 -2.519505 -0.264276 -32.046642 3.930498 2.907620 -22.202671 10.584158 24.990902 -85.416611 -4.343354 -4.120117 -33.836811 2.760428 59.787945 -3.935579 -0.852441 -58.908585 17.588804 -14.850218 25.000000 73.859421 14.821888 71.792473 0.153427 -23.194300 -20.875328 14.461635 14.442624 -82.893547 -12.331769 3.797256 17.799347 35.204262 9.250057 0.673410 0.371649 -9.374641 6.879305 -16.743479 -8.689188 -0.892478 32.830589 0.449100 2.033857 8.598116 5.201545 9.974018 
0.707254 55.068180 5.279457 9.701136 0.641297 -5.742482 0.000000 0.000000 0.000000 5.736245 1.542315 6.643202 12.328400 -2.919888 -0.274077 -34.601986 4.076507 2.986246 -21.627987 10.967809 24.996407 -85.306618 -4.733882 -4.170663 -33.459461 1.455220 58.775211 -2.819210 0.897619 -59.199085 17.807308 -15.856768 24.994633 75.330513 15.759272 72.442955 -1.941958 -22.098051 -23.851158 12.715270 17.685909 -82.940887 -12.561588 4.027663 17.874357 38.183582 9.390190 0.499731 -1.916063 -9.340400 7.672794 -16.388998 -8.843752 -0.959337 33.971336 -0.097650 2.007254 8.007763 5.104052 9.493479 
0.728690 55.115334 5.299857 9.447011 0.855237 -5.625537 0.000000 0.000000 0.000000 5.776269 1.629550 6.663005 7.087469 -3.466754 -0.283866 -37.022251 4.203547 2.918069 -20.876339 11.126273 24.995716 -84.885674 -4.931649 -4.392259 -33.006943 -0.335359 57.237698 -0.901301 2.798054 -59.476597 18.035835 -16.914423 24.993050 76.787285 16.837523 73.052711 -3.915091 -20.364260 -27.778093 10.877945 21.641989 -82.926361 -12.613063 3.932368 17.821205 41.228779 9.580435 0.417179 -4.155321 -9.673159 9.371541 -16.021442 -9.196992 -1.091066 35.486176 -0.908123 1.990727 7.996327 6.072610 6.791019 
0.772454 54.866283 5.348171 9.087402 1.234261 -5.626215 0.000000 0.000000 0.000000 5.667885 1.542314 6.643202 5.110226 -3.964781 -0.323520 -38.202614 4.359930 2.831167 -20.293917 10.447695 24.995361 -84.089043 -4.664638 -4.832156 -32.547764 -1.444683 55.735168 0.777456 3.957680 -59.635746 18.309099 -17.173292 24.998400 77.198181 17.574856 73.116150 -4.935086 -18.434938 -31.213446 9.844508 24.573469 -82.806519 -12.255059 3.515265 17.719643 42.698097 9.647223 0.334737 -4.867118 -9.718578 9.749921 -15.698225 -9.635671 -1.246877 36.833981 -1.650324 1.948789 8.383093 7.751190 3.356261 
0.803540 54.440666 5.388495 8.787339 1.496587 -5.656188 0.000000 0.000000 0.000000 5.387208 1.561684 6.652966 3.893748 -4.443280 -0.343039 -38.938057 4.623587 2.753309 -19.786175 9.576928 24.993713 -83.207222 -4.333793 -5.315220 -31.980499 -2.323423 54.156773 2.453490 4.912484 -59.740562 18.555517 -17.201799 24.997786 77.275970 18.216585 73.014801 -5.628620 -16.462992 -34.550659 9.259211 27.310572 -82.534309 -11.959013 3.278684 17.679144 44.209660 9.695283 0.249563 -5.508129 -9.318482 9.044953 -15.549912 -9.878602 -1.318696 38.489292 -2.450733 1.922777 8.751214 9.259350 1.429957 
0.822046 53.799839 5.420213 8.545634 1.651908 -5.715013 0.000000 0.000000 0.000000 4.950439 1.658550 6.692291 3.421338 -4.902235 -0.382804 -39.387497 4.926211 2.695746 -19.300215 8.540832 24.995129 -82.230545 -4.011498 -5.849624 -31.238602 -3.129718 52.549873 4.197678 5.754508 -59.795628 18.745329 -17.045172 24.995464 77.062286 18.886620 72.740067 -6.063906 -14.299879 -37.880737 9.083374 29.992064 -82.094101 -11.781717 3.199165 17.656281 45.891003 9.741611 0.184502 -6.186693 -8.366166 7.120267 -15.647713 -9.976316 -1.339269 40.662441 -3.359299 1.946189 8.931106 10.466802 0.777074 
0.818641 52.628826 5.433441 8.329427 1.739123 -5.793674 0.000000 0.000000 0.000000 4.277153 1.813517 6.751451 3.895138 -5.253771 -0.412010 -39.737701 5.091414 2.843381 -18.596451 7.484478 24.997112 -80.982811 -3.944929 -6.538763 -29.913069 -4.354757 50.921799 6.494848 6.901031 -59.780903 18.850246 -16.739187 24.995600 76.530090 19.973007 72.190613 -6.181415 -11.114588 -41.724468 9.328975 33.112045 -81.292389 -11.961111 3.299785 17.688473 48.425797 9.861908 0.085180 -7.147340 -5.938335 2.555735 -16.157961 -9.802185 -1.247264 44.344273 -4.589666 2.010767 8.155884 10.673326 1.713803 
0.811995 51.380123 5.453863 7.818530 1.875240 -5.764694 0.000000 0.000000 0.000000 4.049098 1.784423 6.751449 5.178595 -5.566249 -0.432398 -39.295437 4.672282 2.773572 -18.391756 6.556572 24.997541 -80.165039 -3.741682 -6.991930 -29.158104 -4.651010 49.929092 8.094871 7.839913 -59.715488 18.802963 -16.427465 24.995657 76.011414 20.654171 71.737755 -6.158525 -9.100178 -43.367523 7.807743 35.871151 -81.087677 -12.221678 3.072754 17.587624 51.340832 10.416813 0.104885 -7.220690 -4.933026 2.312201 -16.478270 -9.654682 -1.205365 47.843914 -5.487313 2.154794 8.211343 12.326857 7.961406 
0.789001 49.974403 5.442575 7.480263 1.895219 -5.598769 0.000000 0.000000 0.000000 3.839128 1.745667 6.741684 6.556802 -5.605304 -0.442121 -38.648582 3.921680 2.623745 -18.491493 6.209010 24.989872 -80.076721 -3.825498 -7.024080 -28.644756 -4.155848 49.436050 9.399842 8.707999 -59.585438 18.483400 -16.479076 24.997868 75.869713 21.347233 71.496918 -5.995948 -7.528719 -44.220451 5.916036 38.258755 -81.092873 -13.076396 2.949582 17.485804 54.961754 11.204999 0.089493 -8.215103 -4.550148 3.366770 -17.212103 -9.333525 -1.077504 51.774349 -6.181246 2.424927 6.828207 13.702798 13.158671 
0.723690 48.220280 5.333323 7.979533 1.497773 -5.177327 0.000000 0.000000 0.000000 3.142886 1.949050 6.810656 7.299531 -4.960822 -0.392540 -38.411037 3.004834 2.552488 -18.831148 7.290238 24.989738 -81.540649 -4.863873 -6.202388 -28.055351 -2.598155 49.379631 10.737636 9.562842 -59.404846 17.459385 -17.539604 24.998379 76.784386 22.488163 71.757805 -5.550983 -6.059916 -45.163280 5.643788 40.003548 -80.701637 -15.509924 3.510818 17.458035 60.027187 12.114974 0.097952 -12.821984 -4.382093 3.500437 -19.389479 -8.513710 -0.733007 57.160366 -6.688290 2.804365 0.604724 12.442729 13.960881 
0.584783 45.830994 5.120669 9.059968 0.642482 -4.570573 0.000000 0.000000 0.000000 2.287005 2.346037 6.929989 7.582119 -4.052667 -0.333271 -38.369923 1.971140 2.247451 -19.251572 9.321494 24.997725 -83.316147 -6.522075 -5.197347 -27.300245 -1.980510 48.183823 13.821106 10.925906 -58.945183 16.153265 -19.348116 25.000000 78.630493 23.891468 72.484032 -4.588594 -4.593612 -47.307217 7.909672 40.769531 -79.583778 -19.779537 4.752140 17.414551 68.292847 13.263597 0.045662 -23.459961 -2.770014 3.938464 -22.950987 -6.843383 -0.108530 64.778748 -7.371191 3.432373 -11.264713 7.668311 13.260946 
